<svg aria-hidden="true" style="position: absolute; width: 0; height: 0; overflow: hidden;" version="1.1" xmlns="http://www.w3.org/2000/svg" xmlns:xlink="http://www.w3.org/1999/xlink">
<defs>
<symbol id="icon-night" viewBox="0 0 78 32">
<path fill="#000" style="fill: var(--color1, #000)" d="M16 0h46.222c8.837 0 16 7.163 16 16s-7.163 16-16 16h-46.222c-8.837 0-16-7.163-16-16s7.163-16 16-16z"></path>
<path fill="none" stroke="#fff" style="stroke: var(--color2, #fff)" stroke-linejoin="round" stroke-linecap="round" stroke-miterlimit="4" stroke-width="1.7778" d="M5.246 15.699c0.315 4.462 4.139 8.093 8.715 8.292 3.229 0.139 6.116-1.352 7.849-3.7 0.717-0.962 0.332-1.603-0.866-1.386-0.586 0.104-1.19 0.147-1.82 0.121-4.279-0.173-7.779-3.717-7.796-7.902-0.009-1.126 0.227-2.192 0.656-3.163 0.473-1.074-0.096-1.586-1.19-1.126-3.465 1.447-5.836 4.904-5.547 8.864z"></path>
<path fill="#fff" style="fill: var(--color2, #fff)" d="M54.3 7.531c4.591-4.695 12.020-4.71 16.593-0.032s4.559 12.275-0.032 16.971c-4.591 4.695-12.020 4.71-16.593 0.032s-4.559-12.275 0.032-16.971z"></path>
<path fill="none" stroke="#000" style="stroke: var(--color1, #000)" stroke-linejoin="miter" stroke-linecap="round" stroke-miterlimit="4" stroke-width="2.1333" d="M69.33 8.766c3.753 4.102 3.739 10.769-0.031 14.89"></path>
</symbol>
<symbol id="icon-day" viewBox="0 0 80 32">
<path fill="#000" style="fill: var(--color1, #000)" d="M16 0h48c8.837 0 16 7.163 16 16s-7.163 16-16 16h-48c-8.837 0-16-7.163-16-16s7.163-16 16-16z"></path>
<path fill="#fff" style="fill: var(--color2, #fff)" d="M24.469 7.531c-4.695-4.695-12.293-4.71-16.971-0.032s-4.663 12.275 0.032 16.971c4.695 4.695 12.293 4.71 16.971 0.032s4.663-12.275-0.032-16.971z"></path>
<path fill="none" stroke="#000" style="stroke: var(--color1, #000)" stroke-linejoin="miter" stroke-linecap="round" stroke-miterlimit="4" stroke-width="1.6" d="M9.098 8.766c-3.839 4.102-3.824 10.769 0.032 14.89"></path>
<path fill="none" stroke="#fff" style="stroke: var(--color2, #fff)" stroke-linejoin="round" stroke-linecap="round" stroke-miterlimit="4" stroke-width="1.3333" d="M65.333 22.667c3.682 0 6.667-2.985 6.667-6.667s-2.985-6.667-6.667-6.667c-3.682 0-6.667 2.985-6.667 6.667s2.985 6.667 6.667 6.667z"></path>
<path fill="none" stroke="#fff" style="stroke: var(--color2, #fff)" stroke-linejoin="round" stroke-linecap="round" stroke-miterlimit="4" stroke-width="2" d="M71.876 9.457l0.121-0.121M58.669 22.664l0.121-0.121M65.333 6.741v-0.075M65.333 25.333v-0.075M56.075 16h-0.075M74.667 16h-0.075M58.791 9.457l-0.121-0.121M71.997 22.664l-0.121-0.121"></path>
</symbol>
</defs>
</svg>
